<mxfile host="Electron" agent="Mozilla/5.0 (Windows NT 10.0; Win64; x64) AppleWebKit/537.36 (KHTML, like Gecko) draw.io/26.2.2 Chrome/134.0.6998.178 Electron/35.1.2 Safari/537.36" version="26.2.2">
  <diagram name="第 1 页" id="3zil4xG0uViYqBmfMzGI">
    <mxGraphModel dx="1556" dy="122" grid="0" gridSize="10" guides="1" tooltips="1" connect="1" arrows="1" fold="1" page="0" pageScale="1" pageWidth="827" pageHeight="1169" background="#ffffff" math="0" shadow="0">
      <root>
        <mxCell id="0" />
        <mxCell id="1" parent="0" />
        <mxCell id="LIy3COJy61-hEHOoki2R-82" value="" style="rounded=0;whiteSpace=wrap;html=1;fillColor=none;dashed=1;strokeColor=#666666;" parent="1" vertex="1">
          <mxGeometry x="200" y="1020" width="640" height="1530" as="geometry" />
        </mxCell>
        <mxCell id="S0_RyhDASHA5Elp-pzC3-38" value="&lt;font face=&quot;Comic Sans MS&quot;&gt;input_socket&lt;/font&gt;" style="rounded=0;whiteSpace=wrap;html=1;fillColor=#fad9d5;strokeColor=#ae4132;" parent="1" vertex="1">
          <mxGeometry x="310" y="940" width="140" height="40" as="geometry" />
        </mxCell>
        <mxCell id="S0_RyhDASHA5Elp-pzC3-65" value="&lt;font face=&quot;Comic Sans MS&quot;&gt;output_socket&lt;/font&gt;" style="rounded=0;whiteSpace=wrap;html=1;fillColor=#b1ddf0;strokeColor=#10739e;" parent="1" vertex="1">
          <mxGeometry x="550" y="940" width="140" height="40" as="geometry" />
        </mxCell>
        <mxCell id="LIy3COJy61-hEHOoki2R-2" value="" style="rounded=0;whiteSpace=wrap;html=1;fillColor=#eeeeee;strokeColor=#36393d;" parent="1" vertex="1">
          <mxGeometry x="240" y="1060" width="560" height="1460" as="geometry" />
        </mxCell>
        <mxCell id="LIy3COJy61-hEHOoki2R-1" value="" style="rounded=0;whiteSpace=wrap;html=1;dashed=1;strokeColor=#b85450;fillColor=#f8cecc;" parent="1" vertex="1">
          <mxGeometry x="270" y="1100" width="220" height="100" as="geometry" />
        </mxCell>
        <mxCell id="LIy3COJy61-hEHOoki2R-3" value="" style="rounded=0;whiteSpace=wrap;html=1;dashed=1;strokeColor=#6c8ebf;fillColor=#dae8fc;" parent="1" vertex="1">
          <mxGeometry x="510" y="1100" width="220" height="100" as="geometry" />
        </mxCell>
        <mxCell id="LIy3COJy61-hEHOoki2R-6" style="edgeStyle=orthogonalEdgeStyle;rounded=0;orthogonalLoop=1;jettySize=auto;html=1;exitX=0.5;exitY=1;exitDx=0;exitDy=0;strokeColor=#CC0000;" parent="1" source="S0_RyhDASHA5Elp-pzC3-38" target="LIy3COJy61-hEHOoki2R-5" edge="1">
          <mxGeometry relative="1" as="geometry" />
        </mxCell>
        <mxCell id="LIy3COJy61-hEHOoki2R-8" style="edgeStyle=orthogonalEdgeStyle;rounded=0;orthogonalLoop=1;jettySize=auto;html=1;exitX=0.5;exitY=0;exitDx=0;exitDy=0;entryX=0.5;entryY=1;entryDx=0;entryDy=0;strokeColor=#0066CC;" parent="1" source="LIy3COJy61-hEHOoki2R-4" target="S0_RyhDASHA5Elp-pzC3-65" edge="1">
          <mxGeometry relative="1" as="geometry" />
        </mxCell>
        <mxCell id="LIy3COJy61-hEHOoki2R-4" value="&lt;font face=&quot;Comic Sans MS&quot;&gt;process_output_socket()&lt;/font&gt;" style="rounded=0;whiteSpace=wrap;html=1;fillColor=#1ba1e2;fontColor=#ffffff;strokeColor=#006EAF;" parent="1" vertex="1">
          <mxGeometry x="530" y="1140" width="180" height="40" as="geometry" />
        </mxCell>
        <mxCell id="LIy3COJy61-hEHOoki2R-14" style="edgeStyle=orthogonalEdgeStyle;rounded=0;orthogonalLoop=1;jettySize=auto;html=1;exitX=0.5;exitY=1;exitDx=0;exitDy=0;entryX=0.5;entryY=0;entryDx=0;entryDy=0;strokeColor=#CC0000;" parent="1" source="LIy3COJy61-hEHOoki2R-5" target="LIy3COJy61-hEHOoki2R-13" edge="1">
          <mxGeometry relative="1" as="geometry" />
        </mxCell>
        <mxCell id="LIy3COJy61-hEHOoki2R-5" value="&lt;font face=&quot;Comic Sans MS&quot;&gt;process_input_socket()&lt;/font&gt;" style="rounded=0;whiteSpace=wrap;html=1;fillColor=#a20025;fontColor=#ffffff;strokeColor=#6F0000;" parent="1" vertex="1">
          <mxGeometry x="290" y="1140" width="180" height="40" as="geometry" />
        </mxCell>
        <mxCell id="LIy3COJy61-hEHOoki2R-9" value="&lt;font face=&quot;Comic Sans MS&quot;&gt;Thread&lt;/font&gt;" style="text;html=1;align=center;verticalAlign=middle;resizable=0;points=[];autosize=1;strokeColor=none;fillColor=none;" parent="1" vertex="1">
          <mxGeometry x="270" y="1100" width="60" height="30" as="geometry" />
        </mxCell>
        <mxCell id="LIy3COJy61-hEHOoki2R-10" value="&lt;font face=&quot;Comic Sans MS&quot;&gt;Thread&lt;/font&gt;" style="text;html=1;align=center;verticalAlign=middle;resizable=0;points=[];autosize=1;strokeColor=none;fillColor=none;" parent="1" vertex="1">
          <mxGeometry x="510" y="1100" width="60" height="30" as="geometry" />
        </mxCell>
        <mxCell id="LIy3COJy61-hEHOoki2R-12" style="edgeStyle=orthogonalEdgeStyle;rounded=0;orthogonalLoop=1;jettySize=auto;html=1;entryX=0.5;entryY=1;entryDx=0;entryDy=0;strokeColor=#0066CC;" parent="1" source="LIy3COJy61-hEHOoki2R-11" target="LIy3COJy61-hEHOoki2R-4" edge="1">
          <mxGeometry relative="1" as="geometry" />
        </mxCell>
        <mxCell id="LIy3COJy61-hEHOoki2R-11" value="&lt;font face=&quot;Comic Sans MS&quot;&gt;output_queue&lt;/font&gt;" style="rounded=0;whiteSpace=wrap;html=1;fillColor=#b1ddf0;strokeColor=#10739e;" parent="1" vertex="1">
          <mxGeometry x="550" y="1230" width="140" height="40" as="geometry" />
        </mxCell>
        <mxCell id="LIy3COJy61-hEHOoki2R-13" value="&lt;font face=&quot;Comic Sans MS&quot;&gt;input_queue&lt;/font&gt;" style="rounded=0;whiteSpace=wrap;html=1;fillColor=#fad9d5;strokeColor=#ae4132;" parent="1" vertex="1">
          <mxGeometry x="310" y="1230" width="140" height="40" as="geometry" />
        </mxCell>
        <mxCell id="LIy3COJy61-hEHOoki2R-16" value="&lt;font face=&quot;Comic Sans MS&quot;&gt;&lt;b&gt;EngineCoreProc&lt;/b&gt;&lt;/font&gt;" style="text;html=1;align=center;verticalAlign=middle;resizable=0;points=[];autosize=1;strokeColor=none;fillColor=none;" parent="1" vertex="1">
          <mxGeometry x="240" y="1060" width="110" height="30" as="geometry" />
        </mxCell>
        <mxCell id="LIy3COJy61-hEHOoki2R-17" value="" style="rounded=0;whiteSpace=wrap;html=1;fillColor=#ffcd28;strokeColor=#d79b00;gradientColor=#ffa500;" parent="1" vertex="1">
          <mxGeometry x="260" y="1300" width="520" height="140" as="geometry" />
        </mxCell>
        <mxCell id="LIy3COJy61-hEHOoki2R-23" style="edgeStyle=orthogonalEdgeStyle;rounded=0;orthogonalLoop=1;jettySize=auto;html=1;exitX=0.5;exitY=1;exitDx=0;exitDy=0;strokeColor=#CC0000;" parent="1" source="LIy3COJy61-hEHOoki2R-13" target="LIy3COJy61-hEHOoki2R-19" edge="1">
          <mxGeometry relative="1" as="geometry" />
        </mxCell>
        <mxCell id="LIy3COJy61-hEHOoki2R-18" value="&lt;font face=&quot;Comic Sans MS&quot;&gt;&lt;b&gt;run_busy_loop():&lt;/b&gt;&lt;/font&gt;" style="text;html=1;align=center;verticalAlign=middle;resizable=0;points=[];autosize=1;strokeColor=none;fillColor=none;" parent="1" vertex="1">
          <mxGeometry x="260" y="1300" width="120" height="30" as="geometry" />
        </mxCell>
        <mxCell id="LIy3COJy61-hEHOoki2R-21" style="edgeStyle=orthogonalEdgeStyle;rounded=0;orthogonalLoop=1;jettySize=auto;html=1;exitX=1;exitY=0.5;exitDx=0;exitDy=0;entryX=0;entryY=0.5;entryDx=0;entryDy=0;strokeColor=#CC0000;" parent="1" source="LIy3COJy61-hEHOoki2R-19" target="LIy3COJy61-hEHOoki2R-20" edge="1">
          <mxGeometry relative="1" as="geometry" />
        </mxCell>
        <mxCell id="LIy3COJy61-hEHOoki2R-28" style="edgeStyle=orthogonalEdgeStyle;rounded=0;orthogonalLoop=1;jettySize=auto;html=1;exitX=0.5;exitY=1;exitDx=0;exitDy=0;entryX=0.5;entryY=0;entryDx=0;entryDy=0;strokeColor=#CC0000;" parent="1" source="LIy3COJy61-hEHOoki2R-19" target="LIy3COJy61-hEHOoki2R-27" edge="1">
          <mxGeometry relative="1" as="geometry" />
        </mxCell>
        <mxCell id="LIy3COJy61-hEHOoki2R-19" value="&lt;font face=&quot;Comic Sans MS&quot;&gt;_process_input_queue()&lt;/font&gt;" style="rounded=0;whiteSpace=wrap;html=1;fillColor=#a20025;fontColor=#ffffff;strokeColor=#6F0000;" parent="1" vertex="1">
          <mxGeometry x="290" y="1360" width="180" height="40" as="geometry" />
        </mxCell>
        <mxCell id="LIy3COJy61-hEHOoki2R-22" style="edgeStyle=orthogonalEdgeStyle;rounded=0;orthogonalLoop=1;jettySize=auto;html=1;exitX=1;exitY=0.5;exitDx=0;exitDy=0;entryX=0;entryY=0.5;entryDx=0;entryDy=0;strokeColor=#CC0000;" parent="1" source="LIy3COJy61-hEHOoki2R-20" target="LIy3COJy61-hEHOoki2R-19" edge="1">
          <mxGeometry relative="1" as="geometry">
            <Array as="points">
              <mxPoint x="730" y="1380" />
              <mxPoint x="730" y="1420" />
              <mxPoint x="270" y="1420" />
              <mxPoint x="270" y="1380" />
            </Array>
          </mxGeometry>
        </mxCell>
        <mxCell id="LIy3COJy61-hEHOoki2R-20" value="&lt;font face=&quot;Comic Sans MS&quot;&gt;_process_engine_step()&lt;/font&gt;" style="rounded=0;whiteSpace=wrap;html=1;fillColor=#a20025;fontColor=#ffffff;strokeColor=#6F0000;" parent="1" vertex="1">
          <mxGeometry x="530" y="1360" width="180" height="40" as="geometry" />
        </mxCell>
        <mxCell id="LIy3COJy61-hEHOoki2R-25" value="" style="rounded=0;whiteSpace=wrap;html=1;strokeColor=#9673a6;fillColor=#e1d5e7;" parent="1" vertex="1">
          <mxGeometry x="260" y="1540" width="520" height="390" as="geometry" />
        </mxCell>
        <mxCell id="LIy3COJy61-hEHOoki2R-38" style="edgeStyle=orthogonalEdgeStyle;rounded=0;orthogonalLoop=1;jettySize=auto;html=1;strokeColor=#CC0000;" parent="1" source="LIy3COJy61-hEHOoki2R-20" target="LIy3COJy61-hEHOoki2R-37" edge="1">
          <mxGeometry relative="1" as="geometry" />
        </mxCell>
        <mxCell id="LIy3COJy61-hEHOoki2R-26" value="&lt;font face=&quot;Comic Sans MS&quot;&gt;&lt;b&gt;Scheduler&lt;/b&gt;&lt;/font&gt;" style="text;html=1;align=center;verticalAlign=middle;resizable=0;points=[];autosize=1;strokeColor=none;fillColor=none;" parent="1" vertex="1">
          <mxGeometry x="260" y="1540" width="80" height="30" as="geometry" />
        </mxCell>
        <mxCell id="LIy3COJy61-hEHOoki2R-33" style="edgeStyle=orthogonalEdgeStyle;rounded=0;orthogonalLoop=1;jettySize=auto;html=1;exitX=0.5;exitY=1;exitDx=0;exitDy=0;strokeColor=#CC0000;" parent="1" source="LIy3COJy61-hEHOoki2R-27" target="LIy3COJy61-hEHOoki2R-30" edge="1">
          <mxGeometry relative="1" as="geometry" />
        </mxCell>
        <mxCell id="LIy3COJy61-hEHOoki2R-27" value="&lt;font face=&quot;Comic Sans MS&quot;&gt;Request&lt;/font&gt;" style="rounded=0;whiteSpace=wrap;html=1;fillColor=#f8cecc;gradientColor=#ea6b66;strokeColor=#b85450;" parent="1" vertex="1">
          <mxGeometry x="310" y="1470" width="140" height="40" as="geometry" />
        </mxCell>
        <mxCell id="LIy3COJy61-hEHOoki2R-49" style="edgeStyle=orthogonalEdgeStyle;rounded=0;orthogonalLoop=1;jettySize=auto;html=1;exitX=0.5;exitY=1;exitDx=0;exitDy=0;entryX=0.5;entryY=0;entryDx=0;entryDy=0;strokeColor=#CC0000;" parent="1" source="LIy3COJy61-hEHOoki2R-41" target="LIy3COJy61-hEHOoki2R-48" edge="1">
          <mxGeometry relative="1" as="geometry" />
        </mxCell>
        <mxCell id="LIy3COJy61-hEHOoki2R-41" value="" style="rounded=0;whiteSpace=wrap;html=1;dashed=1;strokeColor=#d79b00;fillColor=#ffcd28;gradientColor=#ffa500;" parent="1" vertex="1">
          <mxGeometry x="270" y="1680" width="430" height="90" as="geometry" />
        </mxCell>
        <mxCell id="LIy3COJy61-hEHOoki2R-34" style="edgeStyle=orthogonalEdgeStyle;rounded=0;orthogonalLoop=1;jettySize=auto;html=1;exitX=0.5;exitY=1;exitDx=0;exitDy=0;strokeColor=#CC0000;" parent="1" source="LIy3COJy61-hEHOoki2R-30" target="LIy3COJy61-hEHOoki2R-32" edge="1">
          <mxGeometry relative="1" as="geometry" />
        </mxCell>
        <mxCell id="LIy3COJy61-hEHOoki2R-30" value="&lt;font face=&quot;Comic Sans MS&quot;&gt;add_request()&lt;/font&gt;" style="rounded=0;whiteSpace=wrap;html=1;fillColor=#a20025;fontColor=#ffffff;strokeColor=#6F0000;" parent="1" vertex="1">
          <mxGeometry x="290" y="1580" width="180" height="40" as="geometry" />
        </mxCell>
        <mxCell id="LIy3COJy61-hEHOoki2R-32" value="&lt;font face=&quot;Comic Sans MS&quot;&gt;waiting&lt;/font&gt;" style="rounded=0;whiteSpace=wrap;html=1;fillColor=#fff2cc;strokeColor=#d6b656;gradientColor=#ffd966;" parent="1" vertex="1">
          <mxGeometry x="290" y="1705" width="180" height="40" as="geometry" />
        </mxCell>
        <mxCell id="LIy3COJy61-hEHOoki2R-45" style="edgeStyle=orthogonalEdgeStyle;rounded=0;orthogonalLoop=1;jettySize=auto;html=1;exitX=1;exitY=0.5;exitDx=0;exitDy=0;entryX=1;entryY=0.5;entryDx=0;entryDy=0;strokeColor=#0066CC;" parent="1" source="LIy3COJy61-hEHOoki2R-35" target="LIy3COJy61-hEHOoki2R-11" edge="1">
          <mxGeometry relative="1" as="geometry">
            <Array as="points">
              <mxPoint x="750" y="1820" />
              <mxPoint x="750" y="1250" />
            </Array>
          </mxGeometry>
        </mxCell>
        <mxCell id="LIy3COJy61-hEHOoki2R-35" value="&lt;font face=&quot;Comic Sans MS&quot;&gt;EngineCoreOutputs&lt;/font&gt;" style="rounded=0;whiteSpace=wrap;html=1;fillColor=#dae8fc;gradientColor=#7ea6e0;strokeColor=#6c8ebf;" parent="1" vertex="1">
          <mxGeometry x="550" y="1800" width="140" height="40" as="geometry" />
        </mxCell>
        <mxCell id="LIy3COJy61-hEHOoki2R-44" style="edgeStyle=orthogonalEdgeStyle;rounded=0;orthogonalLoop=1;jettySize=auto;html=1;exitX=0.5;exitY=1;exitDx=0;exitDy=0;entryX=0.5;entryY=0;entryDx=0;entryDy=0;strokeColor=#CC0000;" parent="1" source="LIy3COJy61-hEHOoki2R-37" target="LIy3COJy61-hEHOoki2R-41" edge="1">
          <mxGeometry relative="1" as="geometry" />
        </mxCell>
        <mxCell id="LIy3COJy61-hEHOoki2R-37" value="&lt;font face=&quot;Comic Sans MS&quot;&gt;schedule()&lt;/font&gt;" style="rounded=0;whiteSpace=wrap;html=1;fillColor=#a20025;fontColor=#ffffff;strokeColor=#6F0000;" parent="1" vertex="1">
          <mxGeometry x="530" y="1580" width="180" height="40" as="geometry" />
        </mxCell>
        <mxCell id="LIy3COJy61-hEHOoki2R-46" style="edgeStyle=orthogonalEdgeStyle;rounded=0;orthogonalLoop=1;jettySize=auto;html=1;exitX=0.5;exitY=0;exitDx=0;exitDy=0;entryX=0.5;entryY=1;entryDx=0;entryDy=0;strokeColor=#0066CC;" parent="1" source="LIy3COJy61-hEHOoki2R-39" target="LIy3COJy61-hEHOoki2R-35" edge="1">
          <mxGeometry relative="1" as="geometry" />
        </mxCell>
        <mxCell id="LIy3COJy61-hEHOoki2R-39" value="&lt;font face=&quot;Comic Sans MS&quot;&gt;update_from_output()&lt;/font&gt;" style="rounded=0;whiteSpace=wrap;html=1;fillColor=#1ba1e2;fontColor=#ffffff;strokeColor=#006EAF;" parent="1" vertex="1">
          <mxGeometry x="530" y="1870" width="180" height="40" as="geometry" />
        </mxCell>
        <mxCell id="LIy3COJy61-hEHOoki2R-40" value="&lt;font face=&quot;Comic Sans MS&quot;&gt;running&lt;/font&gt;" style="rounded=0;whiteSpace=wrap;html=1;fillColor=#fff2cc;strokeColor=#d6b656;gradientColor=#ffd966;" parent="1" vertex="1">
          <mxGeometry x="490" y="1705" width="180" height="40" as="geometry" />
        </mxCell>
        <mxCell id="LIy3COJy61-hEHOoki2R-50" style="edgeStyle=orthogonalEdgeStyle;rounded=0;orthogonalLoop=1;jettySize=auto;html=1;exitX=1;exitY=0.5;exitDx=0;exitDy=0;entryX=0;entryY=0.5;entryDx=0;entryDy=0;strokeColor=#0066CC;" parent="1" source="LIy3COJy61-hEHOoki2R-48" target="LIy3COJy61-hEHOoki2R-39" edge="1">
          <mxGeometry relative="1" as="geometry" />
        </mxCell>
        <mxCell id="LIy3COJy61-hEHOoki2R-48" value="&lt;font face=&quot;Comic Sans MS&quot;&gt;SchedulerOutput&lt;/font&gt;" style="rounded=0;whiteSpace=wrap;html=1;fillColor=#f8cecc;gradientColor=#ea6b66;strokeColor=#b85450;" parent="1" vertex="1">
          <mxGeometry x="310" y="1870" width="140" height="40" as="geometry" />
        </mxCell>
        <mxCell id="LIy3COJy61-hEHOoki2R-53" style="edgeStyle=orthogonalEdgeStyle;rounded=0;orthogonalLoop=1;jettySize=auto;html=1;exitX=0.5;exitY=0;exitDx=0;exitDy=0;entryX=0.5;entryY=1;entryDx=0;entryDy=0;strokeColor=#0066CC;" parent="1" source="LIy3COJy61-hEHOoki2R-51" target="LIy3COJy61-hEHOoki2R-39" edge="1">
          <mxGeometry relative="1" as="geometry" />
        </mxCell>
        <mxCell id="LIy3COJy61-hEHOoki2R-51" value="&lt;font face=&quot;Comic Sans MS&quot;&gt;ModelRunnerOutput&lt;/font&gt;" style="rounded=0;whiteSpace=wrap;html=1;fillColor=#dae8fc;gradientColor=#7ea6e0;strokeColor=#6c8ebf;" parent="1" vertex="1">
          <mxGeometry x="550" y="1970" width="140" height="40" as="geometry" />
        </mxCell>
        <mxCell id="LIy3COJy61-hEHOoki2R-55" value="" style="rounded=0;whiteSpace=wrap;html=1;fillColor=#e1d5e7;strokeColor=#9673a6;" parent="1" vertex="1">
          <mxGeometry x="260" y="2050" width="520" height="450" as="geometry" />
        </mxCell>
        <mxCell id="LIy3COJy61-hEHOoki2R-79" style="edgeStyle=orthogonalEdgeStyle;rounded=0;orthogonalLoop=1;jettySize=auto;html=1;exitX=0.5;exitY=1;exitDx=0;exitDy=0;entryX=0.208;entryY=0.001;entryDx=0;entryDy=0;entryPerimeter=0;strokeColor=#CC0000;" parent="1" source="LIy3COJy61-hEHOoki2R-48" target="LIy3COJy61-hEHOoki2R-58" edge="1">
          <mxGeometry relative="1" as="geometry">
            <Array as="points">
              <mxPoint x="380" y="2100" />
            </Array>
          </mxGeometry>
        </mxCell>
        <mxCell id="LIy3COJy61-hEHOoki2R-56" value="&lt;font face=&quot;Comic Sans MS&quot;&gt;&lt;b&gt;MultiprocExecutor&lt;/b&gt;&lt;/font&gt;" style="text;html=1;align=center;verticalAlign=middle;resizable=0;points=[];autosize=1;strokeColor=none;fillColor=none;" parent="1" vertex="1">
          <mxGeometry x="255" y="2050" width="130" height="30" as="geometry" />
        </mxCell>
        <mxCell id="LIy3COJy61-hEHOoki2R-60" style="edgeStyle=orthogonalEdgeStyle;rounded=0;orthogonalLoop=1;jettySize=auto;html=1;exitX=0.208;exitY=0.994;exitDx=0;exitDy=0;entryX=0.5;entryY=0;entryDx=0;entryDy=0;exitPerimeter=0;strokeColor=#CC0000;" parent="1" source="LIy3COJy61-hEHOoki2R-58" target="LIy3COJy61-hEHOoki2R-59" edge="1">
          <mxGeometry relative="1" as="geometry" />
        </mxCell>
        <mxCell id="LIy3COJy61-hEHOoki2R-61" value="&lt;font face=&quot;Comic Sans MS&quot;&gt;enqueue&lt;/font&gt;" style="edgeLabel;html=1;align=center;verticalAlign=middle;resizable=0;points=[];labelBackgroundColor=none;" parent="LIy3COJy61-hEHOoki2R-60" vertex="1" connectable="0">
          <mxGeometry x="-0.0871" relative="1" as="geometry">
            <mxPoint x="30" y="-12" as="offset" />
          </mxGeometry>
        </mxCell>
        <mxCell id="LIy3COJy61-hEHOoki2R-80" style="edgeStyle=orthogonalEdgeStyle;rounded=0;orthogonalLoop=1;jettySize=auto;html=1;exitX=0.75;exitY=0;exitDx=0;exitDy=0;entryX=0.5;entryY=1;entryDx=0;entryDy=0;strokeColor=#0066CC;" parent="1" source="LIy3COJy61-hEHOoki2R-58" target="LIy3COJy61-hEHOoki2R-51" edge="1">
          <mxGeometry relative="1" as="geometry">
            <Array as="points">
              <mxPoint x="620" y="2100" />
            </Array>
          </mxGeometry>
        </mxCell>
        <mxCell id="LIy3COJy61-hEHOoki2R-58" value="&lt;font face=&quot;Comic Sans MS&quot;&gt;collective_rpc(&quot;execute_model&quot;)&lt;/font&gt;" style="rounded=0;whiteSpace=wrap;html=1;fillColor=#fff2cc;strokeColor=#d6b656;gradientColor=#ffd966;" parent="1" vertex="1">
          <mxGeometry x="280" y="2100" width="480" height="40" as="geometry" />
        </mxCell>
        <mxCell id="LIy3COJy61-hEHOoki2R-59" value="&lt;font face=&quot;Comic Sans MS&quot;&gt;rpc_broadcast_mq&lt;/font&gt;" style="rounded=0;whiteSpace=wrap;html=1;fillColor=#fad9d5;strokeColor=#ae4132;" parent="1" vertex="1">
          <mxGeometry x="300" y="2210" width="160" height="40" as="geometry" />
        </mxCell>
        <mxCell id="LIy3COJy61-hEHOoki2R-64" value="" style="rounded=0;whiteSpace=wrap;html=1;fillColor=#dae8fc;strokeColor=#6c8ebf;gradientColor=#7ea6e0;" parent="1" vertex="1">
          <mxGeometry x="520" y="2210" width="200" height="90" as="geometry" />
        </mxCell>
        <mxCell id="LIy3COJy61-hEHOoki2R-74" style="edgeStyle=orthogonalEdgeStyle;rounded=0;orthogonalLoop=1;jettySize=auto;html=1;exitX=1;exitY=0.5;exitDx=0;exitDy=0;strokeColor=#0066CC;" parent="1" source="LIy3COJy61-hEHOoki2R-62" edge="1">
          <mxGeometry relative="1" as="geometry">
            <mxPoint x="620" y="2140" as="targetPoint" />
            <Array as="points">
              <mxPoint x="750" y="2270" />
              <mxPoint x="750" y="2180" />
              <mxPoint x="620" y="2180" />
            </Array>
          </mxGeometry>
        </mxCell>
        <mxCell id="LIy3COJy61-hEHOoki2R-62" value="&lt;font face=&quot;Comic Sans MS&quot;&gt;worker_response_mq&lt;/font&gt;" style="rounded=0;whiteSpace=wrap;html=1;fillColor=#b1ddf0;strokeColor=#10739e;" parent="1" vertex="1">
          <mxGeometry x="540" y="2250" width="160" height="40" as="geometry" />
        </mxCell>
        <mxCell id="LIy3COJy61-hEHOoki2R-63" value="&lt;font face=&quot;Comic Sans MS&quot;&gt;WorkerProcHandle&lt;/font&gt;" style="text;html=1;align=center;verticalAlign=middle;resizable=0;points=[];autosize=1;strokeColor=none;fillColor=none;" parent="1" vertex="1">
          <mxGeometry x="520" y="2210" width="130" height="30" as="geometry" />
        </mxCell>
        <mxCell id="LIy3COJy61-hEHOoki2R-68" value="" style="rounded=0;whiteSpace=wrap;html=1;fillColor=#dae8fc;strokeColor=#6c8ebf;gradientColor=#7ea6e0;" parent="1" vertex="1">
          <mxGeometry x="520" y="2300" width="200" height="90" as="geometry" />
        </mxCell>
        <mxCell id="LIy3COJy61-hEHOoki2R-75" style="edgeStyle=orthogonalEdgeStyle;rounded=0;orthogonalLoop=1;jettySize=auto;html=1;exitX=1;exitY=0.5;exitDx=0;exitDy=0;strokeColor=#0066CC;" parent="1" source="LIy3COJy61-hEHOoki2R-69" edge="1">
          <mxGeometry relative="1" as="geometry">
            <mxPoint x="620" y="2140" as="targetPoint" />
            <Array as="points">
              <mxPoint x="750" y="2360" />
              <mxPoint x="750" y="2180" />
              <mxPoint x="620" y="2180" />
            </Array>
          </mxGeometry>
        </mxCell>
        <mxCell id="LIy3COJy61-hEHOoki2R-69" value="&lt;font face=&quot;Comic Sans MS&quot;&gt;worker_response_mq&lt;/font&gt;" style="rounded=0;whiteSpace=wrap;html=1;fillColor=#b1ddf0;strokeColor=#10739e;" parent="1" vertex="1">
          <mxGeometry x="540" y="2340" width="160" height="40" as="geometry" />
        </mxCell>
        <mxCell id="LIy3COJy61-hEHOoki2R-70" value="&lt;font face=&quot;Comic Sans MS&quot;&gt;WorkerProcHandle&lt;/font&gt;" style="text;html=1;align=center;verticalAlign=middle;resizable=0;points=[];autosize=1;strokeColor=none;fillColor=none;" parent="1" vertex="1">
          <mxGeometry x="520" y="2300" width="130" height="30" as="geometry" />
        </mxCell>
        <mxCell id="LIy3COJy61-hEHOoki2R-71" value="" style="rounded=0;whiteSpace=wrap;html=1;fillColor=#dae8fc;strokeColor=#6c8ebf;gradientColor=#7ea6e0;" parent="1" vertex="1">
          <mxGeometry x="520" y="2390" width="200" height="90" as="geometry" />
        </mxCell>
        <mxCell id="LIy3COJy61-hEHOoki2R-76" style="edgeStyle=orthogonalEdgeStyle;rounded=0;orthogonalLoop=1;jettySize=auto;html=1;exitX=1;exitY=0.5;exitDx=0;exitDy=0;strokeColor=#0066CC;" parent="1" source="LIy3COJy61-hEHOoki2R-72" edge="1">
          <mxGeometry relative="1" as="geometry">
            <mxPoint x="620" y="2140" as="targetPoint" />
            <Array as="points">
              <mxPoint x="750" y="2450" />
              <mxPoint x="750" y="2180" />
              <mxPoint x="620" y="2180" />
            </Array>
          </mxGeometry>
        </mxCell>
        <mxCell id="LIy3COJy61-hEHOoki2R-77" value="&lt;font face=&quot;Comic Sans MS&quot;&gt;dequeue&lt;/font&gt;" style="edgeLabel;html=1;align=center;verticalAlign=middle;resizable=0;points=[];labelBackgroundColor=none;" parent="LIy3COJy61-hEHOoki2R-76" vertex="1" connectable="0">
          <mxGeometry x="0.583" relative="1" as="geometry">
            <mxPoint x="-32" y="-20" as="offset" />
          </mxGeometry>
        </mxCell>
        <mxCell id="LIy3COJy61-hEHOoki2R-72" value="&lt;font face=&quot;Comic Sans MS&quot;&gt;worker_response_mq&lt;/font&gt;" style="rounded=0;whiteSpace=wrap;html=1;fillColor=#b1ddf0;strokeColor=#10739e;" parent="1" vertex="1">
          <mxGeometry x="540" y="2430" width="160" height="40" as="geometry" />
        </mxCell>
        <mxCell id="LIy3COJy61-hEHOoki2R-73" value="&lt;font face=&quot;Comic Sans MS&quot;&gt;WorkerProcHandle&lt;/font&gt;" style="text;html=1;align=center;verticalAlign=middle;resizable=0;points=[];autosize=1;strokeColor=none;fillColor=none;" parent="1" vertex="1">
          <mxGeometry x="520" y="2390" width="130" height="30" as="geometry" />
        </mxCell>
        <mxCell id="LIy3COJy61-hEHOoki2R-183" value="&lt;font face=&quot;Comic Sans MS&quot;&gt;&lt;b&gt;Process 1&lt;/b&gt;&lt;/font&gt;" style="text;html=1;align=center;verticalAlign=middle;resizable=0;points=[];autosize=1;strokeColor=none;fillColor=none;" parent="1" vertex="1">
          <mxGeometry x="200" y="1020" width="80" height="30" as="geometry" />
        </mxCell>
      </root>
    </mxGraphModel>
  </diagram>
</mxfile>
